Coordinates
version=1
nRows=17
nColumns=36
inDegrees=yes

Units are S.I. units (second, meters, Newtons, ...)
If the header above contains a line with 'inDegrees', this indicates whether rotational values are in degrees (yes) or radians (no).

endheader
time	pelvis_tilt	pelvis_list	pelvis_rotation	pelvis_tx	pelvis_ty	pelvis_tz	hip_flexion_r	hip_adduction_r	hip_rotation_r	knee_angle_r	knee_angle_r_beta	ankle_angle_r	subtalar_angle_r	mtp_angle_r	hip_flexion_l	hip_adduction_l	hip_rotation_l	knee_angle_l	knee_angle_l_beta	ankle_angle_l	subtalar_angle_l	mtp_angle_l	lumbar_extension	lumbar_bending	lumbar_rotation	arm_flex_r	arm_add_r	arm_rot_r	elbow_flex_r	pro_sup_r	arm_flex_l	arm_add_l	arm_rot_l	elbow_flex_l	pro_sup_l
      1.93750000	    -12.59107164	     -1.44819162	      3.37308592	      0.03191873	      0.55946086	     -0.07957190	     89.10579517	     -5.88755601	      2.88243863	    106.66612098	      1.86167501	     26.27033959	    -30.85185601	     -7.49999987	     87.65820101	     -6.07861505	      9.43089643	    113.54292237	      1.98169784	     33.30559150	     -3.28238130	     -7.49999987	    -40.34298787	      0.68291576	      3.79127470	     48.99584171	    -20.50846837	     13.88325892	     74.33898971	     92.87565225	     61.48224456	    -20.97174608	     10.39877243	    101.19734141	     73.53210679
      1.94166670	    -12.86865001	     -1.30924591	      3.48147948	      0.03632173	      0.55040549	     -0.08361225	     90.09554409	     -6.07704435	      3.33293780	    108.15548152	      1.88766926	     26.38570410	    -31.29380397	     -7.49999987	     88.62718118	     -6.15090528	      9.35941876	    114.68796574	      2.00168261	     33.84393924	     -2.76336107	     -7.49999987	    -40.19007087	      0.37403917	      3.66736569	     49.75548651	    -20.22423421	     14.08680481	     73.99657344	     92.97398649	     62.03517265	    -20.39113499	     10.80758837	    101.37561636	     73.66894076
      1.94583330	    -13.02443262	     -1.04242412	      3.84804877	      0.03211088	      0.54592253	     -0.07849979	     91.28096977	     -5.95261664	      4.09950907	    109.41093618	      1.90958107	     26.24185580	    -31.77419304	     -7.49999987	     89.57793521	     -6.03777348	      9.16240804	    115.65918952	      2.01863367	     34.40823529	     -2.08269842	     -7.49999987	    -40.26696648	     -0.14830887	      3.28798125	     50.51229871	    -19.60879263	     14.21057696	     73.79184555	     93.04751040	     62.94708295	    -19.98951140	     11.21723980	    101.43883475	     73.85292311
      1.95000000	    -13.32846776	     -0.91288077	      4.30448806	      0.03322198	      0.53916511	     -0.07855434	     92.64265997	     -6.01801829	      4.73317651	    110.79256432	      1.93369503	     26.13171786	    -32.17096568	     -7.49999987	     90.64089701	     -5.75138904	      9.31102672	    116.49716920	      2.03325917	     34.32510869	     -1.59767226	     -7.49999987	    -40.16796123	     -0.36222697	      2.84066775	     51.68837901	    -18.92315587	     14.51055574	     73.71411222	     91.06603568	     64.08079469	    -19.60782404	     11.89298478	    101.18416310	     73.90676013
      1.95416670	    -14.15735535	     -0.88136717	      4.54878873	      0.03803113	      0.53803823	     -0.08412248	     93.93233863	     -6.04816172	      5.29693626	    111.35885616	      1.94357869	     25.91202478	    -32.32757591	     -7.49999987	     91.84205218	     -5.42560789	      9.14273584	    117.06274897	      2.04313040	     34.08195939	     -1.54331706	     -7.49999987	    -39.69808185	     -0.59158172	      2.86495582	     52.15628982	    -18.72701897	     13.81156447	     74.20396332	     93.54900383	     64.94840721	    -18.21013593	     12.57390664	    100.78163534	     76.07662578
      1.95833330	    -14.46688827	     -0.91946438	      4.48362008	      0.04303424	      0.53445900	     -0.08906568	     94.48922063	     -6.02471559	      5.85528708	    112.04116787	      1.95548728	     26.15407498	    -32.60350904	     -7.49999987	     92.16323704	     -5.10188736	      9.23034508	    117.67598549	      2.05383340	     34.41315058	     -1.70944142	     -7.49999987	    -39.71245887	     -0.43596158	      2.79894285	     53.24837311	    -18.36789985	     13.78121535	     74.42696897	     93.56246992	     65.16648194	    -17.47052656	     12.80873876	    100.83504518	     76.10244005
      1.96250000	    -15.73881401	     -0.63135369	      4.49238192	      0.04625028	      0.52895517	     -0.09465883	     96.04359655	     -6.45710872	      6.72889549	    112.68486887	      1.96672198	     26.40434809	    -32.12817352	     -7.49999987	     93.64078458	     -4.45937197	      8.54254403	    118.45931442	      2.06750507	     34.97725796	     -1.82289068	     -7.49999987	    -38.69804216	     -0.47606399	      2.65223980	     54.00476022	    -18.93935461	     14.62340018	     74.94274708	     90.79729832	     64.92728359	    -16.21214312	     12.71641638	    101.26711012	     75.55911552
      1.96666670	    -16.49290388	     -0.34627339	      4.19614360	      0.04618798	      0.52462555	     -0.10298117	     97.08557795	     -6.86136589	      7.70044797	    113.07608949	      1.97355007	     26.74945802	    -31.12749868	     -7.49999987	     94.84968242	     -4.08980049	      7.75526113	    119.54224013	      2.08640569	     35.23131776	     -2.08999084	     -7.49999987	    -38.32382329	     -0.32861196	      2.69479409	     55.05769974	    -19.35094143	     14.93264268	     75.54083524	     91.42858524	     64.44033920	    -15.22506869	     12.36768131	    101.97404297	     75.96770920
      1.97083330	    -16.76021696	     -0.27128325	      4.09741279	      0.04939007	      0.52115138	     -0.09764588	     97.51223141	     -7.04667667	      8.11475209	    113.62920722	      1.98320379	     26.81216711	    -31.06815884	     -7.49999987	     95.36927812	     -4.10551755	      7.54174822	    120.39759184	      2.10133439	     35.28733674	     -2.14338872	     -7.49999987	    -38.38582398	     -0.17553317	      2.79368442	     56.26420759	    -19.16435699	     14.84822474	     75.84380595	     91.47152658	     64.51265575	    -14.68308085	     12.51086062	    102.06353227	     76.00835677
      1.97500000	    -17.61122179	     -0.26881207	      4.22548665	      0.04921026	      0.51000622	     -0.09783723	     99.25628428	     -7.67404232	      8.36142279	    114.67949755	      2.00153482	     27.89209395	    -29.94979452	     -7.49999987	     97.07883645	     -3.84771581	      7.55364969	    121.52899199	      2.12108105	     35.62125321	     -1.95104200	     -7.49999987	    -37.62758883	      0.32388981	      2.41079698	     57.87407755	    -19.03742602	     16.58159765	     76.05514456	     95.33772799	     63.77463804	    -14.06224983	     11.12019535	    102.99092727	     79.26502346
      1.97916670	    -18.02071967	     -0.38790405	      4.27084505	      0.04868223	      0.50594156	     -0.09833451	    100.42459050	     -7.93401207	      8.38188439	    115.64934416	      2.01846183	     28.79541577	    -29.12158194	     -7.49999987	     98.27630064	     -3.81934443	      7.95440248	    122.52024474	      2.13838167	     35.48504759	     -1.97874530	     -7.49999987	    -37.20463784	      0.50432571	      2.60197216	     58.87626427	    -18.94788086	     17.28391162	     76.42356432	     93.84560869	     63.71230822	    -13.27094470	     11.31768272	    103.01672417	     78.37883899
      1.98333330	    -17.91859817	     -0.28193556	      4.31354810	      0.04941027	      0.50664560	     -0.09810801	    100.62409734	     -8.11217887	      8.34838621	    116.21077677	      2.02826068	     29.25849136	    -28.66140986	     -7.49999987	     98.60789008	     -3.73869674	      8.09183246	    123.06043624	      2.14780979	     35.14423316	     -2.18496046	     -7.49999987	    -37.51622321	      0.42878319	      2.56472001	     59.73747570	    -18.61232108	     17.34814680	     76.62987116	     93.51476211	     63.94345285	    -12.85675743	     11.45107640	    102.94680675	     78.28997567
      1.98750000	    -18.79567022	     -0.62714141	      4.44314573	      0.05803344	      0.50267145	     -0.08926958	    101.65638704	     -8.09308488	      7.76249539	    116.89711898	      2.04023961	     30.19836283	    -28.46276617	     -7.49999987	     99.71907431	     -4.20125766	      9.18446846	    123.56676450	      2.15664689	     34.91502579	     -1.27823463	     -7.49999987	    -36.46838977	      0.73695083	      2.47046041	     60.04116581	    -17.80292669	     18.48364134	     77.08467474	     93.90784189	     63.30366662	    -12.64047460	     11.09270899	    103.28142862	     78.43858167
      1.99166670	    -19.34566798	     -0.43401006	      4.17147478	      0.05736409	      0.49885993	     -0.09858916	    102.39166600	     -8.06801673	      7.86442989	    117.32586628	      2.04772266	     30.51835071	    -27.81791420	     -7.49999987	    100.64268079	     -4.58874083	      8.99110240	    124.17559647	      2.16727301	     34.85960862	     -0.57936686	     -7.49999987	    -35.92468497	      0.71261412	      1.77352984	     61.07766863	    -16.52291613	     19.66967986	     76.60272058	     94.10628095	     62.50793637	    -13.11380725	     10.53321011	    104.36651668	     78.54890992
      1.99583330	    -19.34762134	     -0.17919490	      3.80821426	      0.05263608	      0.49810137	     -0.10231773	    102.90942681	     -7.93004081	      8.55970005	    117.41232882	      2.04923172	     30.21207312	    -27.56838744	     -7.49999987	    100.92159071	     -4.69487408	      8.53354892	    124.57281655	      2.17420581	     35.01736667	     -0.66910041	     -7.49999987	    -36.02221268	      0.44289398	      1.76054768	     61.89554865	    -15.94325990	     19.98200679	     76.74473995	     94.25174803	     62.69911927	    -12.73221563	     10.70509646	    104.22311079	     78.61242979
      2.00000000	    -19.54176415	     -0.13539824	      3.59740949	      0.05838333	      0.49844494	     -0.09767959	    103.11327608	     -7.70575873	      8.77868592	    117.51903199	      2.05109404	     30.26194234	    -27.57881850	     -7.49999987	    100.76251240	     -4.68954899	      8.64182490	    124.70539852	      2.17651980	     34.99524007	     -0.77212692	     -7.49999987	    -35.92401681	      0.42145239	      1.86329416	     62.33942745	    -15.25748117	     20.18135648	     76.98851214	     94.28393146	     62.84381437	    -12.33527525	     10.89623409	    104.22337691	     78.63007170
      2.00416670	    -19.77271212	      0.07727664	      3.54332193	      0.06221789	      0.49529451	     -0.09352894	    103.38640784	     -7.52946853	      8.85796188	    117.83570515	      2.05662103	     30.42249601	    -27.85167907	     -7.49999987	    100.66978627	     -4.70917992	      8.74123072	    124.74140150	      2.17714817	     35.32477761	     -0.60099406	     -7.49999987	    -35.73007620	      0.10283841	      1.46957393	     62.72397613	    -14.32681119	     20.68665701	     77.39436809	     94.41279797	     63.27128850	    -12.45335012	     10.98020362	    104.09715487	     78.66301000
